<?xml version="1.0" encoding="UTF-8"?>
<svg version="1.1" xmlns="http://www.w3.org/2000/svg" width="512" height="512">
<path d="M0 0 C168.96 0 337.92 0 512 0 C512 168.96 512 337.92 512 512 C343.04 512 174.08 512 0 512 C0 343.04 0 174.08 0 0 Z " fill="#FEFEFE" transform="translate(0,0)"/>
<path d="M0 0 C9.79404057 7.69597418 18.39663856 17.19593103 27.20703125 25.96875 C28.01906195 26.77670517 28.83109264 27.58466034 29.66773033 28.417099 C33.95582619 32.68446557 38.24073199 36.95500674 42.52319336 41.22802734 C46.93058097 45.62430475 51.34953429 50.00876693 55.77110767 54.39076996 C59.18792661 57.78141297 62.59579991 61.18094174 66.0013485 64.582901 C67.62659759 66.20329638 69.25520807 67.82032791 70.88730812 69.43382263 C73.16987788 71.69195405 75.43939177 73.9624879 77.70629883 76.23632812 C78.37391739 76.89113663 79.04153595 77.54594513 79.72938538 78.22059631 C86.45928978 85.02545257 90.99910858 92.28465262 91.375 102 C91.27452788 109.5153143 89.00117522 116.30010328 84.23828125 122.171875 C77.84833114 128.23779113 70.58963895 131.18871865 61.8125 131.375 C48.82139301 130.84407353 41.75597789 124.05400484 32.93505859 115.24145508 C32.17299606 114.48771606 31.41093353 113.73397705 30.6257782 112.95739746 C28.12792661 110.48348669 25.63765569 108.0021268 23.1484375 105.51953125 C21.40311685 103.78318751 19.65772383 102.04691651 17.91226196 100.31071472 C14.26233743 96.67723844 10.61679261 93.03942818 6.97363281 89.39916992 C2.32084489 84.75176775 -2.34788729 80.12074371 -7.02074623 75.49353504 C-10.62904993 71.91507036 -14.22595316 68.32530898 -17.81986618 64.73239708 C-19.53564941 63.02080079 -21.25552567 61.31329678 -22.97966385 59.61011696 C-25.39648395 57.2203566 -27.79676752 54.81505689 -30.19384766 52.40551758 C-30.89841599 51.71578354 -31.60298431 51.0260495 -32.3289032 50.31541443 C-37.96463344 44.59648969 -43.9300126 37.21033522 -44.69140625 28.92578125 C-44.28841297 17.6297574 -42.99544605 11.32018178 -35.19140625 2.984375 C-25.350104 -5.92717855 -11.30301896 -6.36649634 0 0 Z " fill="#09162C" transform="translate(144,178)"/>
<path d="M0 0 C8.4423408 3.04463877 14.78761923 7.90857973 21.00976562 14.23339844 C22.23170624 15.43956818 22.23170624 15.43956818 23.47833252 16.67010498 C26.13614725 19.30175876 28.77169365 21.95445308 31.40625 24.609375 C33.26194316 26.46102059 35.11852572 28.31177522 36.97595215 30.16168213 C40.85287862 34.02774722 44.71710606 37.90616595 48.57421875 41.79199219 C53.01658704 46.26705012 57.48021925 50.72002158 61.9554162 55.16223121 C66.28551667 59.461703 70.59842614 63.77800458 74.90446472 68.10157013 C76.72763854 69.92873218 78.5552406 71.75148715 80.3874054 73.56963348 C82.9482375 76.1151518 85.48892815 78.67925111 88.02539062 81.24902344 C89.15373322 82.35914795 89.15373322 82.35914795 90.30487061 83.49169922 C96.63795581 89.97896787 100.59554611 97.23202707 100.5 106.5 C100.19862941 115.32288382 97.46504965 122.82228589 91 129 C84.22343951 133.4691295 78.9364572 135.15968615 70.8125 135.375 C69.56082031 135.42398438 68.30914062 135.47296875 67.01953125 135.5234375 C58.02512865 134.95191421 51.30573846 127.88479592 45.33081055 121.83251953 C44.51662155 121.02373352 43.70243256 120.21494751 42.86357117 119.38165283 C40.19464462 116.72515878 37.54040722 114.05452189 34.88671875 111.3828125 C33.02652092 109.52276976 31.16565524 107.66339472 29.30415344 105.80465698 C25.41309863 101.91629495 21.53016197 98.0199699 17.65209961 94.11865234 C13.18011818 89.620039 8.69580638 85.13401472 4.2046296 80.6545707 C-0.13314541 76.32760367 -4.46229134 71.99211532 -8.78764915 67.65273666 C-10.62156971 65.81430814 -12.45757351 63.97795526 -14.29570961 62.14374161 C-16.86383793 59.5785305 -19.42202914 57.00380182 -21.9777832 54.42626953 C-22.73472473 53.67382965 -23.49166626 52.92138977 -24.27154541 52.14614868 C-31.16144451 45.15866091 -34.88181534 39.20632697 -35.25 29.25 C-35.06843756 19.80875315 -31.98130536 14.01558618 -25.48828125 7.171875 C-21.97011857 4.10107681 -18.3855641 2.47421711 -14 1 C-9.7024123 -1.14879385 -4.6539224 -0.51155496 0 0 Z " fill="#08162C" transform="translate(312,203)"/>
<path d="M0 0 C7.40196284 6.05615142 11.83539795 12.83201662 13.203125 22.4296875 C13.67737501 31.5913355 10.74838707 37.47019195 4.88766289 44.47630119 C2.81374634 46.68715945 0.68871717 48.82962971 -1.47094727 50.95678711 C-2.27333832 51.76297485 -3.07572937 52.5691626 -3.9024353 53.39978027 C-6.5307852 56.03547987 -9.17314938 58.65660105 -11.81640625 61.27734375 C-13.65746349 63.11601404 -15.49777901 64.95542729 -17.33738708 66.79554749 C-21.18190404 70.6369464 -25.03276231 74.47180359 -28.8894043 78.30102539 C-33.34051224 82.72060207 -37.78099842 87.15062692 -42.21563488 91.58672708 C-46.49827474 95.87058922 -50.78671071 100.14858499 -55.07813835 104.42364693 C-56.89779931 106.23694762 -58.71625507 108.05145856 -60.53347969 109.86720085 C-63.07014846 112.39953404 -65.61329298 114.92517374 -68.15844727 117.44897461 C-68.90715591 118.19858963 -69.65586456 118.94820465 -70.42726135 119.72053528 C-78.31953501 127.51616373 -84.04790322 129.59307199 -95.03491211 129.6328125 C-102.46504339 129.47130619 -107.72310351 127.39470429 -113.3046875 122.41796875 C-120.87193484 114.45822933 -121.59237707 106.97863626 -121.84375 96.34765625 C-121.11919632 87.35913497 -114.28040736 80.69367954 -108.20605469 74.67260742 C-107.41023483 73.868172 -106.61441498 73.06373657 -105.79447937 72.23492432 C-103.18033518 69.59821388 -100.55186266 66.97636943 -97.921875 64.35546875 C-96.08918945 62.51754418 -94.25702381 60.67910104 -92.425354 58.84016418 C-88.59210954 54.99653311 -84.75167936 51.1602907 -80.90576172 47.3293457 C-76.47445081 42.91496505 -72.05978659 38.4844309 -67.65310931 34.04547042 C-63.39339774 29.7557515 -59.11973473 25.48023347 -54.84030914 21.21016884 C-53.02966716 19.40034505 -51.22284805 17.58668802 -49.4200058 15.76909447 C-46.8957057 13.22731298 -44.35588195 10.70210155 -41.81152344 8.18041992 C-41.07562485 7.43282913 -40.33972626 6.68523834 -39.58152771 5.91499329 C-28.10424797 -5.35584904 -14.36031824 -7.73247905 0 0 Z " fill="#09162C" transform="translate(325.25,104.75)"/>
<path d="M0 0 C4.7831062 3.04510065 8.0640293 6.59882031 10.875 11.5 C11.41382813 12.43199219 11.95265625 13.36398437 12.5078125 14.32421875 C15.35936648 20.94797128 14.75102092 29.329012 12.9375 36.25 C7.81655682 48.37746914 -6.18113764 58.77379601 -15.3125 67.9609375 C-16.13148773 68.78524891 -16.95047546 69.60956032 -17.79428101 70.45885086 C-22.1197515 74.81087981 -26.4487744 79.15934274 -30.78027344 83.50537109 C-34.35046539 87.08895351 -37.91322534 90.6796862 -41.46972656 94.27685547 C-45.78727331 98.64374328 -50.11698815 102.99820586 -54.45571899 107.34404373 C-56.09933568 108.99435783 -57.73870725 110.64891163 -59.37362671 112.30784225 C-61.66061318 114.62652386 -63.9629561 116.92885355 -66.26953125 119.22802734 C-66.93369049 119.90859192 -67.59784973 120.58915649 -68.28213501 121.29034424 C-74.88871861 127.81090218 -82.07583552 131.02555573 -91.3125 131.75 C-99.7304865 131.19800089 -107.16652483 128.63710184 -113.125 122.5 C-119.3938051 113.85478512 -120.82258356 107.08685634 -120.125 96.5 C-117.92429225 82.81208148 -99.99573731 70.15319857 -90.71875 60.8203125 C-89.88872971 59.98496853 -89.05870941 59.14962456 -88.20353699 58.28896713 C-83.81971311 53.87858211 -79.43233493 49.47176483 -75.04248047 45.06738281 C-71.42378662 41.43529879 -67.8125226 37.79606293 -64.20751953 34.15039062 C-59.83161643 29.72515032 -55.44354717 25.31232988 -51.04646301 20.90813828 C-49.3805182 19.2354953 -47.71881909 17.55861198 -46.06156921 15.87735367 C-43.74344911 13.52754365 -41.40997161 11.19407342 -39.07226562 8.86376953 C-38.39875565 8.17385422 -37.72524567 7.4839389 -37.03132629 6.77311707 C-27.04408868 -3.08576526 -12.98920912 -6.49460456 0 0 Z " fill="#08162C" transform="translate(295.125,280.5)"/>
<path d="M0 0 C5.63936775 4.36321772 9.6431447 10.68134892 11 17.71484375 C11.85127141 26.12933427 10.13931627 34.03043297 5.3125 41.02734375 C-0.42325808 48.03771473 -7.58167352 51.03868294 -16.41015625 51.96875 C-24.7251595 52.36715046 -30.78967448 49.70729261 -37.25 44.58984375 C-42.48611896 39.63647521 -45.56148108 34.46333724 -46.40625 27.2421875 C-46.69142994 16.13205248 -44.71124808 9.78749795 -37.125 1.69921875 C-26.60475142 -8.12483691 -11.69959255 -7.51790225 0 0 Z " fill="#FE7E42" transform="translate(222,107.28515625)"/>
<path d="M0 0 C6.46368957 4.65477823 11.43874397 9.94796659 13 18 C13.7669133 27.27839365 13.23100637 35.43006756 7.45703125 43.03125 C2.10601908 48.81083293 -4.57092879 52.4709691 -12.4453125 53.23828125 C-20.7371102 53.46793745 -27.72940664 51.77158734 -34.375 46.625 C-42.01912185 38.98087815 -43.49415744 32.60689361 -43.50195312 22.2902832 C-43.29484365 14.06474201 -41.073564 8.90592763 -35.1015625 3.1796875 C-24.90025786 -5.16683448 -11.4655435 -7.25937577 0 0 Z " fill="#FE7E42" transform="translate(397,180)"/>
<path d="M0 0 C7.31820219 4.13106406 12.62266757 10.14141589 15.82421875 17.890625 C17.11821928 25.66408033 17.22524588 34.68855602 13.26171875 41.640625 C8.51687265 48.09672707 2.87809507 53.33931656 -5.17578125 54.890625 C-15.48808681 55.75902968 -23.27991016 55.23772488 -31.42578125 48.703125 C-36.52319773 43.9862622 -39.91624607 37.8185901 -40.37890625 30.81640625 C-40.51625991 20.22872862 -39.60173828 13.50587801 -32.15625 5.72265625 C-23.41834961 -2.36033247 -11.2528159 -3.93087296 0 0 Z " fill="#FE7E42" transform="translate(320.17578125,355.109375)"/>
<path d="M0 0 C6.65910475 4.00453829 11.44995415 9.83193707 14.375 17 C15.66351499 24.77748025 15.77836292 33.79383402 11.8125 40.75 C7.18196635 47.06535223 1.92380854 51.58994809 -5.625 54 C-15.02211657 55.14949438 -23.83406805 54.87293534 -31.625 49 C-37.47020981 43.87908793 -41.18209525 37.33947128 -41.97265625 29.59375 C-42.19881697 20.38999187 -41.26832426 14.02625122 -35.5 6.8125 C-26.1703983 -2.96045054 -12.58360741 -5.6655139 0 0 Z " fill="#FE7E42" transform="translate(144.625,281)"/>
<path d="M0 0 C8.7133259 7.90971856 16.9972464 16.25344213 25.31860352 24.57099915 C26.98096652 26.23014405 28.64340265 27.8892157 30.3059082 29.54821777 C33.77040771 33.00676137 37.23286669 36.46733306 40.6940918 39.92915344 C45.13209943 44.36726332 49.57698481 48.79841659 54.02360535 53.22789478 C57.44987931 56.64307081 60.87161957 60.06276121 64.29208374 63.48375511 C65.92995929 65.12045029 67.56945736 66.75552344 69.21060181 68.38894081 C71.49615831 70.66472809 73.77532576 72.94672929 76.05297852 75.23042297 C76.7313829 75.90320786 77.40978729 76.57599274 78.10874939 77.26916504 C78.72810867 77.89271881 79.34746796 78.51627258 79.9855957 79.15872192 C80.52383972 79.69642118 81.06208374 80.23412043 81.61663818 80.78811359 C83.11854074 82.55904552 84.05301462 84.31664789 85.00610352 86.4264679 C82.00610352 86.4264679 82.00610352 86.4264679 80.45007133 84.95143509 C79.90402308 84.27951 79.35797482 83.60758492 78.79537964 82.91529846 C75.17815185 78.6023325 71.34385885 74.59651889 67.37768555 70.60517883 C66.64984863 69.86916443 65.92201172 69.13315002 65.17211914 68.37483215 C62.78905123 65.96717322 60.40205384 63.56347265 58.01391602 61.1608429 C56.7826832 59.92162457 56.7826832 59.92162457 55.526577 58.65737152 C51.18817179 54.29236021 46.8461814 49.93094787 42.50170898 45.57197571 C38.91783686 41.97472971 35.34138657 38.37034367 31.77124023 34.75947571 C27.44303437 30.38192292 23.10265516 26.01680014 18.75326157 21.66030121 C17.10406391 20.00440383 15.4591133 18.34426487 13.81860733 16.67975616 C11.52182638 14.35127554 9.2096817 12.03914985 6.89331055 9.73017883 C6.22600922 9.04647217 5.55870789 8.3627655 4.8711853 7.65834045 C-1.098153 1.76638004 -7.55256843 -1.70775487 -15.99389648 -2.5735321 C-15.99389648 -2.9035321 -15.99389648 -3.2335321 -15.99389648 -3.5735321 C-9.76904811 -5.28536541 -4.96109069 -3.91516588 0 0 Z " fill="#20242E" transform="translate(145.993896484375,179.5735321044922)"/>
<path d="M0 0 C0.99 0.33 1.98 0.66 3 1 C-7.22514138 11.27186481 -17.45607327 21.53793085 -27.69371414 31.79733849 C-32.44713851 36.56107484 -37.19867288 41.32666811 -41.94580078 46.09667969 C-46.52535066 50.69829488 -51.11011328 55.29467584 -55.69811249 59.88786697 C-57.44937883 61.64283427 -59.19888127 63.39956355 -60.94660187 65.15806198 C-63.39109761 67.61703379 -65.84173823 70.06971776 -68.29394531 72.52099609 C-69.38043617 73.61827278 -69.38043617 73.61827278 -70.48887634 74.73771667 C-71.15909317 75.40518417 -71.82931 76.07265167 -72.51983643 76.76034546 C-73.09872242 77.34107504 -73.67760841 77.92180462 -74.27403641 78.52013206 C-76.08117535 80.069601 -77.83408938 81.03092825 -80 82 C-78.64680663 78.98052101 -77.13702023 76.88899123 -74.79830933 74.55780029 C-74.13925598 73.89599762 -73.48020264 73.23419495 -72.80117798 72.55233765 C-72.07901093 71.83736115 -71.35684387 71.12238464 -70.61279297 70.38574219 C-69.85172241 69.62437958 -69.09065186 68.86301697 -68.30651855 68.07858276 C-65.78978644 65.56324396 -63.26604416 63.05506339 -60.7421875 60.546875 C-58.99583128 58.80424889 -57.2499161 57.06118069 -55.50442505 55.31768799 C-50.90896304 50.72986252 -46.30752651 46.14807483 -41.70483398 41.56750488 C-37.00924536 36.89237414 -32.31931378 32.21157832 -27.62890625 27.53125 C-18.42480823 18.34860228 -9.21458132 9.1721273 0 0 Z " fill="#0F1522" transform="translate(260,286)"/>
<path d="M0 0 C3.00023948 1.34676917 5.08720005 2.83911901 7.40423584 5.16372681 C8.05762436 5.814366 8.71101288 6.46500519 9.38420105 7.13536072 C10.08982681 7.84817703 10.79545258 8.56099335 11.52246094 9.29541016 C12.27406998 10.04672714 13.02567902 10.79804413 13.80006409 11.5721283 C16.28293771 14.05639513 18.7586523 16.54767095 21.234375 19.0390625 C22.95458084 20.76299849 24.6752288 22.48649341 26.39630127 24.20956421 C30.92494332 28.74584251 35.44754715 33.28809494 39.96893311 37.831604 C44.58374014 42.46686953 49.20421396 47.09647863 53.82421875 51.7265625 C62.88837732 60.81217086 71.9463628 69.90390788 81 79 C79.515 79.495 79.515 79.495 78 80 C67.82400506 69.87067355 57.65376741 59.73559809 47.4901886 49.59381294 C42.77116062 44.8852424 38.05028535 40.17856202 33.32519531 35.47607422 C28.76917723 30.94171469 24.21799756 26.4025514 19.67019653 21.85995102 C17.930319 20.12378184 16.18867617 18.38937995 14.44528198 16.6567421 C12.01227302 14.23815509 9.58549762 11.81347946 7.16015625 9.38720703 C6.43079865 8.66503998 5.70144104 7.94287292 4.94998169 7.19882202 C4.29367767 6.53976868 3.63737366 5.88071533 2.96118164 5.20169067 C2.38598282 4.62833544 1.810784 4.0549802 1.21815491 3.46425056 C0 2 0 2 0 0 Z " fill="#0F1421" transform="translate(323,210)"/>
<path d="M0 0 C3.04105741 0.43443677 5.80188097 0.92628129 8.6875 2 C13.3926502 3.4204227 18.11247642 3.66952688 23 4 C23 4.33 23 4.66 23 5 C14.72572768 6.18876459 8.62205324 6.89689735 1.4765625 2.12890625 C0.98929687 1.75636719 0.50203125 1.38382812 0 1 C0 0.67 0 0.34 0 0 Z " fill="#1F2432" transform="translate(366,332)"/>
<path d="M0 0 C-0.58896942 3.59836113 -1.99898556 5.45835011 -4.4375 8.125 C-5.05496094 8.80820313 -5.67242187 9.49140625 -6.30859375 10.1953125 C-7.51696487 11.48461379 -8.75050839 12.75050839 -10 14 C-10.33 13.01 -10.66 12.02 -11 11 C-9.890625 9.0625 -9.890625 9.0625 -8.25 7 C-7.71890625 6.319375 -7.1878125 5.63875 -6.640625 4.9375 C-2.45967742 0 -2.45967742 0 0 0 Z " fill="#161C2A" transform="translate(113,179)"/>
<path d="M0 0 C0.99 0.33 1.98 0.66 3 1 C3 6.28 3 11.56 3 17 C2.34 17 1.68 17 1 17 C0.67 11.39 0.34 5.78 0 0 Z " fill="#12161F" transform="translate(334,119)"/>
<path d="M0 0 C0.66 0 1.32 0 2 0 C1.01 4.29 0.02 8.58 -1 13 C-1.99 13 -2.98 13 -4 13 C-3.56826373 7.90551202 -3.24599784 4.15487723 0 0 Z " fill="#212630" transform="translate(179,368)"/>
<path d="M0 0 C0 0.66 0 1.32 0 2 C-0.99 2.33 -1.98 2.66 -3 3 C-3.825 3.99 -4.65 4.98 -5.5 6 C-8 9 -8 9 -11 10 C-9.63088196 6.8510285 -8.1247864 4.9521513 -5.5 2.75 C-4.8915625 2.22921875 -4.283125 1.7084375 -3.65625 1.171875 C-2 0 -2 0 0 0 Z " fill="#101520" transform="translate(293,207)"/>
<path d="M0 0 C0.33 0.66 0.66 1.32 1 2 C-4.05531868 1.22225866 -9.01716284 0.14051606 -14 -1 C-14 -1.33 -14 -1.66 -14 -2 C-8.67796569 -3.46355943 -4.76552205 -2.58179834 0 0 Z " fill="#181D2A" transform="translate(144,178)"/>
<path d="M0 0 C0.66 0 1.32 0 2 0 C1.67 5.28 1.34 10.56 1 16 C0.67 16 0.34 16 0 16 C-0.19389096 13.5211787 -0.38040123 11.04219069 -0.5625 8.5625 C-0.61857422 7.85544922 -0.67464844 7.14839844 -0.73242188 6.41992188 C-0.86190993 4.61572163 -0.93521608 2.80768048 -1 1 C-0.67 0.67 -0.34 0.34 0 0 Z " fill="#222735" transform="translate(205,196)"/>
</svg>
